# xmcd
#
# Track frame offsets:
#	150
#	15272
#	28058
#	37361
#	49463
#	59868
#	69265
#	79379
#	104843
#	121767
#	138663
#	153357
#	186312
#	212470
#	219990
#	257017
#	306385
#	319624
#	334931
#
# Disc length: 4667 seconds
#
# Revision: 1
# Processed by: cddbd v1.5.2PL0 Copyright (c) Steve Scherf et al.
# Submitted via: audiograbber 1.83.01
#
DISCID=24123913
DTITLE=Canned Heat - On The Road Again
DYEAR=2009
DGENRE=Psychedelic Rock
TTITLE0=On The Road Again
TTITLE1=Same All Over
TTITLE2=Rolling and Tumbling
TTITLE3=Got My Mojo Working
TTITLE4=Spoonful
TTITLE5=Big Road Blues
TTITLE6=I Got My Eyes On You
TTITLE7=Amphetamine Annie
TTITLE8=Let's Work Together (Live)
TTITLE9=Hell's Just On Down The Road (Live)
TTITLE10=So Long (Live)
TTITLE11=Bullfrog Blues
TTITLE12=Dust My Broom
TTITLE13=Pretty Thing
TTITLE14=I Wish You Would
TTITLE15=Sweet Sixteen
TTITLE16=Going Up The Country (Live)
TTITLE17=Kings Of The Boogie (Live)
TTITLE18=Chicken Shack Boogie (Live)
EXTD=
EXTT0=
EXTT1=
EXTT2=
EXTT3=
EXTT4=
EXTT5=
EXTT6=
EXTT7=
EXTT8=
EXTT9=
EXTT10=
EXTT11=
EXTT12=
EXTT13=
EXTT14=
EXTT15=
EXTT16=
EXTT17=
EXTT18=
PLAYORDER=
